<?xml version="1.0" standalone="no"?>
<!DOCTYPE svg PUBLIC "-//W3C//DTD SVG 20010904//EN"
 "http://www.w3.org/TR/2001/REC-SVG-20010904/DTD/svg10.dtd">
<svg version="1.0" xmlns="http://www.w3.org/2000/svg"
 width="2604.000000pt" height="3034.000000pt" viewBox="0 0 2604.000000 3034.000000"
 preserveAspectRatio="xMidYMid meet">

<g transform="translate(0.000000,3034.000000) scale(0.100000,-0.100000)"
fill="#000000" stroke="none">
<path d="M6463 28782 c-51 -26 -93 -50 -93 -54 0 -4 32 -83 71 -175 182 -431
992 -2328 994 -2332 2 -1 147 68 322 156 611 305 1163 529 1768 716 907 281
1769 439 2775 509 248 17 1184 17 1425 0 1324 -95 2475 -352 3625 -812 366
-146 873 -383 1223 -571 43 -23 79 -40 81 -38 1 2 59 137 128 299 69 162 302
709 518 1215 216 506 400 941 411 967 l19 48 -120 60 -120 60 -6467 -1 -6468
0 -92 -47z"/>
<path d="M8220 24395 c0 -11 972 -2290 980 -2298 4 -5 61 23 126 61 793 466
1702 776 2629 896 498 65 1108 73 1610 21 1124 -117 2219 -510 3143 -1128 57
-38 106 -67 108 -65 3 4 1042 2437 1065 2496 l9 22 -4835 0 c-2659 0 -4835 -2
-4835 -5z"/>
<path d="M1504 20078 c7 -18 142 -316 299 -663 157 -346 446 -985 642 -1420
1003 -2219 3260 -7205 6441 -14230 l1702 -3760 2344 -3 2344 -2 1791 3892
c986 2141 2303 5005 2928 6363 626 1359 1224 2659 1330 2890 106 231 568 1237
1027 2235 460 998 1001 2175 1203 2615 202 440 500 1088 662 1440 163 352 297
648 300 658 5 16 -101 17 -2134 17 l-2140 0 -291 -657 c-160 -362 -458 -1036
-662 -1498 -379 -855 -959 -2168 -1710 -3865 -230 -520 -635 -1435 -900 -2035
-301 -680 -602 -1380 -800 -1860 -360 -872 -456 -1104 -1170 -2825 -1065
-2567 -1399 -3405 -1609 -4043 l-43 -127 -32 0 -33 0 -58 167 c-744 2165
-1690 4500 -3533 8728 -987 2263 -2192 5028 -2547 5840 -202 462 -498 1140
-658 1508 l-291 667 -2208 0 -2208 0 14 -32z"/>
<path d="M10263 19608 c44 -106 439 -1035 652 -1533 153 -357 281 -660 286
-672 7 -20 20 -10 151 120 378 376 804 589 1343 673 136 21 458 24 595 5 611
-82 1132 -368 1530 -839 l45 -53 255 598 c140 329 361 849 491 1156 l236 557
-2794 0 c-2232 0 -2794 -3 -2790 -12z"/>
<path d="M11965 15178 c-25 -109 -30 -294 -11 -408 86 -524 513 -906 1038
-927 300 -13 559 77 785 274 142 123 274 336 328 526 48 172 53 391 12 552
l-13 50 -1061 3 -1061 2 -17 -72z"/>
</g>
</svg>
